
<svg width="589px" height="589px" viewBox="0 0 589 589" version="1.1" xmlns="http://www.w3.org/2000/svg" xmlns:xlink="http://www.w3.org/1999/xlink">
    <!-- Generator: Sketch 51.3 (57544) - http://www.bohemiancoding.com/sketch -->
    <desc>Created with Sketch.</desc>
    <defs></defs>
    <g id="Page-1" stroke="none" stroke-width="1" fill="none" fill-rule="evenodd" opacity="0.9" stroke-linecap="round" stroke-linejoin="round">
        <g id="Circle-Pattern" transform="translate(-26.000000, -26.000000)" fill-rule="nonzero" stroke="#A9E9D8" stroke-width="28">
            <path d="M320.5,40 C271.528092,40 225.487348,52.5498046 185.418407,74.6087753 M114.953315,129.629678 C80.8932507,166.291855 56.5226263,212.080027 45.9156106,262.920026 M40,320.5 C40,340.650673 42.1248195,360.305068 46.162626,379.251353 C55.0345072,420.880188 73.1417191,459.090477 98.2372618,491.635219 M259.326414,594.309883 C279.017972,598.689917 299.489212,601 320.5,601 M422.199791,581.995084 C485.413092,557.392674 537.502581,510.529993 568.839356,451.035943 M601,320.5 C601,307.755532 600.150064,295.209578 598.503782,282.915727 C591.651349,231.744178 571.001974,184.940409 540.420313,146.369075 C518.693241,118.965654 491.952801,95.7175917 461.584893,78.0107866" id="Oval-Copy"></path>
        </g>
    </g>
</svg>
