
<svg width="509px" height="509px" viewBox="0 0 509 509" version="1.1" xmlns="http://www.w3.org/2000/svg" xmlns:xlink="http://www.w3.org/1999/xlink">
    <!-- Generator: Sketch 51.3 (57544) - http://www.bohemiancoding.com/sketch -->
    <desc>Created with Sketch.</desc>
    <defs></defs>
    <g id="Page-1" stroke="none" stroke-width="1" fill="none" fill-rule="evenodd" opacity="0.9" stroke-linecap="round" stroke-linejoin="round">
        <g id="Circle-Pattern" transform="translate(-66.000000, -66.000000)" fill-rule="nonzero" stroke="#6141ED" stroke-width="28">
            <path d="M246.408959,91.6289076 C207.617697,104.17743 173.139544,126.313906 145.768641,155.244193 C116.72368,185.943914 95.6819432,224.293907 85.9822556,266.955347 C82.067265,284.17437 80,302.095767 80,320.5 C80,347.981178 84.6092621,374.385806 93.0968739,398.98297 M165.817442,504.663529 C207.63263,539.821586 261.593073,561 320.5,561 M363.223449,557.216635 C392.744816,551.923874 420.397495,541.244008 445.127819,526.230705 M536.410308,426.560931 C552.155877,394.56806 561,358.566858 561,320.5 M550.159132,248.891206 C519.680663,151.038402 428.386286,80 320.5,80" id="Oval-Copy-2"></path>
        </g>
    </g>
</svg>
