
<svg width="669px" height="669px" viewBox="0 0 669 669" version="1.1" xmlns="http://www.w3.org/2000/svg" xmlns:xlink="http://www.w3.org/1999/xlink">
    <!-- Generator: Sketch 51.3 (57544) - http://www.bohemiancoding.com/sketch -->
    <desc>Created with Sketch.</desc>
    <defs></defs>
    <g id="Page-1" stroke="none" stroke-width="1" fill="none" fill-rule="evenodd" opacity="0.9" stroke-linecap="round" stroke-linejoin="round">
        <g id="Circle-Pattern" transform="translate(14.000000, 14.000000)" fill-rule="nonzero" stroke="#393E43" stroke-width="28">
            <path d="M320.5,0 C253.906207,0 192.056128,20.3102491 140.806214,55.0742945 C106.930376,78.0530874 77.6858756,107.346915 54.7640318,141.264459 C25.4827623,184.59207 6.51913054,235.464901 1.39884507,290.357243 C0.473224598,300.280415 0,310.334944 0,320.5 M51.053382,494.118834 C94.8988875,562.024386 163.714989,612.293606 244.513744,631.938553 M320.5,641 C413.30004,641 496.888222,601.559349 555.416422,538.526171 M581.782995,506.154954 C608.836638,468.149356 627.805442,423.988938 636.18001,376.183096 M641,320.5 C641,244.359507 614.449108,174.420307 570.100797,119.435875 C549.567033,93.9774662 525.217869,71.7250516 497.922176,53.547501" id="Oval"></path>
        </g>
    </g>
</svg>
