<svg width="747px" height="747px" viewBox="0 0 747 747" version="1.1" xmlns="http://www.w3.org/2000/svg" xmlns:xlink="http://www.w3.org/1999/xlink">
    <!-- Generator: Sketch 51.2 (57519) - http://www.bohemiancoding.com/sketch -->
    <desc>Created with Sketch.</desc>
    <defs></defs>
    <g id="Splash-Page" stroke="none" stroke-width="1" fill="none" fill-rule="evenodd" stroke-linecap="round" stroke-linejoin="round">
        <g id="3---Consensys---Splash" transform="translate(-601.000000, -138.000000)" fill-rule="nonzero" stroke-width="20">
            <g id="Group" style="mix-blend-mode: multiply;" transform="translate(611.000000, 148.000000)">
                <path d="M363.5,0 C287.971627,0 217.823408,23.0351811 159.697531,62.4633574 C121.276729,88.5251085 88.1086296,121.749153 62.1114682,160.217257 C28.9016665,209.357933 7.39377208,267.056136 1.58652163,329.313129 C0.53671495,340.567647 0,351.971145 0,363.5 M57.9029777,560.412469 C107.631032,637.428593 185.679871,694.442202 277.31902,716.72282 M363.5,727 C468.750591,727 563.553413,682.267779 629.93407,610.777732 M659.838124,574.063419 C690.521429,530.958786 712.035189,480.873569 721.533334,426.65384 M727,363.5 C727,277.14409 696.886898,197.821471 646.58858,135.460032 C623.299895,106.585987 595.683917,81.3480694 564.726087,60.7317211" id="Oval" stroke="#393E43"></path>
                <path d="M363,45 C307.481046,45 255.285122,59.227586 209.859371,84.2356169 M129.973812,146.612256 C91.3602629,188.175792 63.7315335,240.085378 51.7064676,297.722168 M45,363 C45,385.844614 47.4088863,408.126602 51.9865065,429.605812 C62.0444681,476.799999 82.5724302,520.118616 111.022992,557.014259 M293.648127,673.415482 C315.972247,678.381082 339.180283,681 363,681 M478.29602,659.45432 C549.960297,631.562818 609.013621,578.435073 644.539805,510.987273 M681,363 C681,348.551727 680.036436,334.328505 678.170063,320.391092 C670.401529,262.378426 646.991543,209.317469 612.321424,165.589539 C587.689663,134.522559 557.374299,108.166468 522.946509,88.0924426" id="Oval-Copy" stroke="#A9E9D8"></path>
                <path d="M279.550691,104.176205 C235.598014,118.394385 196.532331,143.476255 165.519562,176.255894 C132.609991,211.040402 108.768522,254.493096 97.7782314,302.830903 C93.3423273,322.341022 91,342.646971 91,363.5 C91,394.637718 96.2225527,424.555643 105.839493,452.425611 M188.235979,572.167616 C235.614934,612.003668 296.755145,636 363.5,636 M411.908066,631.713235 C445.357432,625.71624 476.689469,613.615352 504.710314,596.604437 M608.138498,483.672988 C625.979112,447.42327 636,406.631887 636,363.5 M623.716688,282.363217 C589.182872,171.490498 485.741218,91 363.5,91" id="Oval-Copy-2" stroke="#6141ED"></path>
            </g>
        </g>
    </g>
</svg>
